<svg id="Layer_1" data-name="Layer 1" xmlns="http://www.w3.org/2000/svg" xmlns:xlink="http://www.w3.org/1999/xlink" viewBox="0 0 773.97 239.72"><defs><style>.cls-1{fill:url(#linear-gradient);}.cls-2{fill:url(#linear-gradient-2);}.cls-3{fill:url(#linear-gradient-3);}</style><linearGradient id="linear-gradient" x1="190.35" y1="166.31" x2="95.11" y2="71.07" gradientUnits="userSpaceOnUse"><stop offset="0" stop-color="#ef3e27"/><stop offset="1" stop-color="#ff9715"/></linearGradient><linearGradient id="linear-gradient-2" x1="115.34" y1="103.94" x2="131.82" y2="122.42" gradientUnits="userSpaceOnUse"><stop offset="0" stop-color="#ffa943"/><stop offset="1" stop-color="#ff9100"/></linearGradient><linearGradient id="linear-gradient-3" x1="39.42" y1="79.68" x2="152.48" y2="79.68" xlink:href="#linear-gradient"/></defs><title>autotoolit</title><path d="M281.44,142.57l-7,23H259.13l26-81.28h18.93l26.41,81.28H314.61l-7.36-23Zm23.28-11.22-6.39-20c-1.57-4.94-2.89-10.49-4.1-15.2H294c-1.21,4.7-2.41,10.37-3.86,15.2l-6.27,20Z"/><path d="M388.53,148c0,7,.24,12.78.48,17.61H376l-.72-8.92H375a21.24,21.24,0,0,1-18.81,10.25c-10.73,0-20.5-6.39-20.5-25.57V106.88h14.83v32c0,9.77,3.14,16,11,16,5.91,0,9.77-4.22,11.34-8a13.47,13.47,0,0,0,.84-4.58V106.88h14.83Z"/><path d="M418,91.8v15.07h14.11V118H418V143.9c0,7.12,1.93,10.85,7.6,10.85a18.3,18.3,0,0,0,5.79-.72l.24,11.34a32,32,0,0,1-10.73,1.57c-5.43,0-10-1.93-12.78-4.94-3.14-3.38-4.58-8.68-4.58-16.4V118H395v-11.1h8.44V96Z"/><path d="M494.78,135.7c0,21.59-15.2,31.24-30.15,31.24-16.64,0-29.43-11.46-29.43-30.27,0-19.3,12.66-31.11,30.39-31.11C483.09,105.55,494.78,117.85,494.78,135.7Zm-44.26.6c0,11.34,5.55,19.9,14.59,19.9,8.44,0,14.35-8.32,14.35-20.14,0-9.17-4.1-19.66-14.23-19.66C454.74,116.4,450.52,126.53,450.52,136.3Z"/><polygon points="553.69 83.55 493.28 83.55 493.28 89.92 519.82 89.92 519.82 166.38 527.16 166.38 527.16 89.92 553.69 89.92 553.69 83.55"/><path d="M564.65,105.62c-13.56,0-28.15,9.87-28.15,31.53,0,18,11.23,30.56,27.31,30.56h.12c13.68,0,28.39-9.87,28.39-31.53C592.32,117.9,581.2,105.62,564.65,105.62Zm-.48,55.72H564c-11.52,0-20.21-10.55-20.21-24.55,0-12.34,6.4-24.79,20.69-24.79,15,0,20.45,14.61,20.45,24.43C585,150.62,576,161.33,564.16,161.33Z"/><path d="M625.19,105.62c-13.56,0-28.15,9.87-28.15,31.53,0,18,11.23,30.56,27.31,30.56h.12c13.68,0,28.39-9.87,28.39-31.53C652.86,117.9,641.74,105.62,625.19,105.62Zm-.48,55.72h-.12c-11.52,0-20.21-10.55-20.21-24.55,0-12.34,6.4-24.79,20.69-24.79,15,0,20.45,14.61,20.45,24.43C645.52,150.62,636.57,161.33,624.71,161.33Z"/><rect x="662.4" y="79.09" width="7.34" height="87.3"/><rect x="684.35" y="106.94" width="7.34" height="59.44"/><path d="M688,85.36a5.74,5.74,0,0,0-5.48,5.84,5.44,5.44,0,0,0,5.24,5.72h.12a5.48,5.48,0,0,0,5.48-5.72A5.55,5.55,0,0,0,688,85.36Z"/><path d="M732,113.2v-6.25H715.45V93.82l-7.34,2.75v10.37h-9.77v6.25h9.77V149c0,6.76,1.25,11.47,3.79,14.36,2.28,2.79,5.91,4.26,10.49,4.26a23.79,23.79,0,0,0,8.35-1.38l.6-.22-1-5.87-.86.29a20.5,20.5,0,0,1-6.39.8c-5.23,0-7.67-3.55-7.67-11.16V113.2Z"/><path class="cls-1" d="M180.88,57.47a64.73,64.73,0,0,0-20.13,6.29,13.24,13.24,0,0,1,.6,2.86l1.29,13.52A13.36,13.36,0,0,1,155,93.49l-5.56,2.6,3.15,5.27a13.36,13.36,0,0,1-1.16,15.32l-8.66,10.48a13.33,13.33,0,0,1-14.83,4l-5.77-2.1-1.5,5.95a13.36,13.36,0,0,1-9.19,9.53l-45.26,72c.36-.9,9.61-1.4,10.61-1.54l19.61-2.85c22.89-3.33,46.46-6.62,68.52-13.84A69.74,69.74,0,0,0,208,157.1l36.49-111Z"/><path class="cls-2" d="M147.24,38a13.34,13.34,0,0,1,.23,9.67l-2.1,5.77,6,1.5a13.36,13.36,0,0,1,10,11.67l1.29,13.52A13.36,13.36,0,0,1,155,93.49l-5.56,2.6,3.15,5.27a13.36,13.36,0,0,1-1.16,15.32l-8.66,10.48a13.33,13.33,0,0,1-14.83,4l-5.77-2.1-1.5,5.95a13.36,13.36,0,0,1-11.67,10l-13.52,1.29c-.43,0-.85.06-1.27.06a13.37,13.37,0,0,1-12.08-7.7l-2.59-5.55-5.27,3.15a13.34,13.34,0,0,1-6.84,1.89h0a13.35,13.35,0,0,1-6-1.44L41.2,188.34c.31-.77,8.23-1.2,9.09-1.32l16.8-2.44c19.61-2.85,39.8-5.67,58.69-11.85a59.74,59.74,0,0,0,36.88-35.33L199.44,30.72Z"/><path class="cls-3" d="M152.46,81.12l-1.29-13.53a3.12,3.12,0,0,0-2.34-2.73L137.65,62l-3.72-7,3.94-10.84a3.12,3.12,0,0,0-.94-3.47l-10.48-8.65a3.12,3.12,0,0,0-3.59-.27L113,37.72l-7.59-2.33-4.88-10.45a3.12,3.12,0,0,0-3.12-1.78L83.86,24.45a3.12,3.12,0,0,0-2.73,2.34L78.32,38l-7,3.72L60.48,37.75A3.12,3.12,0,0,0,57,38.7L48.35,49.17a3.12,3.12,0,0,0-.27,3.59L54,62.66l-2.33,7.59L41.22,75.12a3.12,3.12,0,0,0-1.78,3.12l1.29,13.53a3.12,3.12,0,0,0,2.34,2.73l11.18,2.81,3.72,7L54,115.15a3.12,3.12,0,0,0,.94,3.47l10.48,8.65a3.12,3.12,0,0,0,3.59.27l9.9-5.91L86.52,124l4.88,10.45a3.11,3.11,0,0,0,3.12,1.78L108,134.9a3.12,3.12,0,0,0,2.73-2.34l2.81-11.18,7-3.72,10.84,3.94a3.12,3.12,0,0,0,3.47-.94l8.65-10.48a3.12,3.12,0,0,0,.27-3.59l-5.91-9.89,2.33-7.59,10.45-4.88A3.12,3.12,0,0,0,152.46,81.12Zm-29.69,6.79a28.06,28.06,0,1,1-9-29.87A28.06,28.06,0,0,1,122.78,87.91Z"/></svg>